<?xml version="1.0" standalone="no"?><!DOCTYPE svg PUBLIC "-//W3C//DTD SVG 1.1//EN" "http://www.w3.org/Graphics/SVG/1.1/DTD/svg11.dtd"><svg t="1588835417689" class="icon" viewBox="0 0 1024 1024" version="1.1" xmlns="http://www.w3.org/2000/svg" p-id="2576" xmlns:xlink="http://www.w3.org/1999/xlink" width="64" height="64"><defs><style type="text/css"></style></defs><path d="M511.997331 511.997331m-511.997331 0a511.997331 511.997331 0 1 0 1023.994661 0 511.997331 511.997331 0 1 0-1023.994661 0Z" fill="#FFFFFF" p-id="2577"></path><path d="M879.217802 868.661156s-83.632766-186.744051-285.029442-179.462982c0 0-24.215438 168.906336-88.977445 168.906336s-93.501722-145.545986-93.501721-168.906336c0 0-141.937122-22.040769-272.964704 174.938705 0 0 99.656246 158.609082 383.055441 159.857782 222.37424 0.978752 331.017208-133.490297 360.434056-153.825413" fill="#4B99D7" p-id="2578"></path><path d="M297.09418 419.249655s-28.619067-149.435356 30.161846-170.414428c0 0-16.204452-51.977909 57.307507-58.815599 0 0 47.964875-62.659726 226.213842-6.032369 0 0 29.155948 12.637813 46.750861 40.718491 0 0 45.588122 27.809222 49.767046 43.734677 4.178924 15.925455 20.98812 86.252322 3.016184 108.582644 0 0 3.346457 30.110571-24.129476 43.734676-29.47868 14.617939-116.661495 11.950123-389.08781-1.508092z" fill="#714B20" p-id="2579"></path><path d="M592.680268 643.955406s45.553436 7.661109 87.469352-108.582645c0 0 108.796794-56.846031 34.686123-111.598829 0 0-23.1462-85.072994-88.977445-128.187844s-137.617945 6.433522-141.760675 42.226584c0 0-138.396121-9.445182-187.003443 79.928891 0 0-79.485512 42.805691 30.161846 110.090737 0 0 46.616641 105.144194 90.485537 114.615013 0 0-9.692509 113.106921 79.928891 113.106922s95.009814-86.501157 95.009814-111.598829z" fill="#EFD7B5" p-id="2580"></path></svg>