<?xml version="1.0" standalone="no"?><!DOCTYPE svg PUBLIC "-//W3C//DTD SVG 1.1//EN" "http://www.w3.org/Graphics/SVG/1.1/DTD/svg11.dtd"><svg t="1588835606251" class="icon" viewBox="0 0 1024 1024" version="1.1" xmlns="http://www.w3.org/2000/svg" p-id="4591" xmlns:xlink="http://www.w3.org/1999/xlink" width="64" height="64"><defs><style type="text/css"></style></defs><path d="M509.53451 514.46549m-509.53451 0a509.53451 509.53451 0 1 0 1019.069021 0 509.53451 509.53451 0 1 0-1019.069021 0Z" fill="#FF5039" p-id="4592"></path><path d="M711.704655 641.027287H386.260032c-8.218299 0-23.011236-9.861958-24.654896-18.080257l-34.516853-223.53772-18.080257-103.550562c-6.574639-26.298555-23.011236-49.309791-50.953451-49.309791h-26.298556c-8.218299 0-18.080257 6.574639-18.080257 16.436597s9.861958 16.436597 18.080257 16.436597h26.298556c8.218299 0 18.080257 11.505618 18.080256 21.367576l19.723917 103.550562 32.873194 221.894061c3.287319 26.298555 29.585875 47.666132 57.52809 47.666132h325.444623c11.505618 0 19.723917-6.574639 19.723916-16.436598 0-8.218299-8.218299-16.436597-19.723916-16.436597z" fill="#FFFFFF" p-id="4593"></path><path d="M394.478331 746.221509m-36.160514 0a36.160514 36.160514 0 1 0 72.321027 0 36.160514 36.160514 0 1 0-72.321027 0Z" fill="#FFFFFF" p-id="4594"></path><path d="M675.544141 746.221509m-36.160513 0a36.160514 36.160514 0 1 0 72.321027 0 36.160514 36.160514 0 1 0-72.321027 0Z" fill="#FFFFFF" p-id="4595"></path><path d="M757.727127 297.502408c-9.861958-11.505618-24.654896-16.436597-39.447833-16.436597H371.467095 366.536116c-8.218299 3.287319-13.149278 13.149278-9.861959 21.367576 1.64366 6.574639 8.218299 11.505618 14.792938 11.505618h346.812199c3.287319 0 9.861958 1.64366 13.149277 3.287319 8.218299 4.930979 13.149278 18.080257 9.861959 34.516854l-29.585875 151.216694c-3.287319 11.505618-11.505618 21.367576-24.654896 23.011236l-282.70947 23.011235h-3.287319c-8.218299 3.287319-13.149278 13.149278-9.861959 21.367577 3.287319 6.574639 9.861958 11.505618 18.080257 9.861958L683.76244 558.844302c31.229535-4.930979 52.597111-16.436597 57.52809-47.666132L772.520064 343.52488c1.64366-18.080257-3.287319-34.516854-14.792937-46.022472z" fill="#FFFFFF" p-id="4596"></path></svg>