<?xml version="1.0" standalone="no"?><!DOCTYPE svg PUBLIC "-//W3C//DTD SVG 1.1//EN" "http://www.w3.org/Graphics/SVG/1.1/DTD/svg11.dtd"><svg t="1588835840663" class="icon" viewBox="0 0 1024 1024" version="1.1" xmlns="http://www.w3.org/2000/svg" p-id="8470" xmlns:xlink="http://www.w3.org/1999/xlink" width="64" height="64"><defs><style type="text/css"></style></defs><path d="M454.724267 463.530667L80.896 296.823467a63.624533 63.624533 0 0 1-43.2128-59.118934c0-26.146133 17.2032-49.629867 43.2128-59.118933L454.656 11.8784a143.36 143.36 0 0 1 113.937067 0l373.896533 166.7072a63.624533 63.624533 0 0 1 43.144533 59.118933 63.624533 63.624533 0 0 1-43.144533 59.118934L568.661333 463.530667a143.36 143.36 0 0 1-113.937066 0z m57.002666 222.958933a187.050667 187.050667 0 0 1-78.506666-17.066667L66.56 498.551467a48.059733 48.059733 0 0 1-32.085333-39.936 46.6944 46.6944 0 0 1 23.688533-44.782934c16.384-9.557333 37.000533-9.557333 53.384533 0L477.866667 584.567467c21.2992 9.693867 46.216533 9.693867 67.584 0l366.728533-170.871467a53.589333 53.589333 0 0 1 53.384533 0.068267c16.384 9.557333 25.531733 26.8288 23.7568 44.782933a48.059733 48.059733 0 0 1-32.1536 39.936L590.097067 669.422933c-24.3712 11.264-51.2 17.066667-78.370134 17.066667z m0 200.977067c-27.2384 0-54.0672-5.802667-78.506666-17.066667L66.56 699.460267a48.059733 48.059733 0 0 1-32.085333-39.936 46.6944 46.6944 0 0 1 23.688533-44.782934c16.384-9.557333 37.000533-9.557333 53.384533-0.068266L477.866667 785.544533c21.2992 9.898667 46.2848 9.898667 67.584 0l366.728533-170.8032a53.589333 53.589333 0 0 1 53.384533 0c16.384 9.557333 25.531733 26.897067 23.7568 44.8512a48.059733 48.059733 0 0 1-32.1536 39.936l-367.138133 170.8032c-24.3712 11.332267-51.2 17.134933-78.370133 17.134934z" p-id="8471"></path></svg>