<?xml version="1.0" standalone="no"?><!DOCTYPE svg PUBLIC "-//W3C//DTD SVG 1.1//EN" "http://www.w3.org/Graphics/SVG/1.1/DTD/svg11.dtd"><svg t="1588835704213" class="icon" viewBox="0 0 1024 1024" version="1.1" xmlns="http://www.w3.org/2000/svg" p-id="5469" xmlns:xlink="http://www.w3.org/1999/xlink" width="64" height="64"><defs><style type="text/css"></style></defs><path d="M106.625894 488.829552c1.459556 1.702815 3.040741 3.40563 4.865186 4.986816L264.866065 636.487944l-37.218672 205.554104c-10.703409 58.868749 52.057489 103.3852 104.114978 74.072455l176.362989-99.371422L693.124053 918.303837c52.179119 28.704597 114.210239-16.176743 103.3852-74.680604l-38.070079-205.918993L910.962751 495.640812c2.310963-2.189334 4.500297-4.500297 6.446372-6.81126H106.625894z" fill="#51AA36" p-id="5470"></path><path d="M748.952061 961.84725c-13.136002 0-27.853189-3.770519-41.597339-10.581779l-195.458843-97.790236L315.220739 951.143841c-12.527854 6.568001-26.758522 10.095261-41.23245 10.095261-19.095855 0-37.705191-6.081482-52.544008-17.14978-27.4883-20.67704-41.597339-56.436156-35.150968-89.032902l40.259414-208.716475-154.226393-143.644613c-23.717781-23.717781-33.083264-59.720157-23.961041-91.830384l0.364889-1.094666c11.189928-33.569783 39.043117-57.165934 72.734529-61.666232l214.189809-38.921487 96.087421-195.337213c15.446965-30.89393 46.827414-50.841193 80.153938-50.841193 34.664449 0 66.896306 20.55541 80.397197 51.327711l95.844162 194.729066L902.448676 346.522865c33.813042 4.743556 62.274379 29.677634 71.396603 62.396009 10.581779 32.596745 2.067704 67.747714-22.258225 92.195273l-0.486519 0.486518-153.739874 144.73928 38.799857 209.081364c6.203112 33.448153-7.05452 67.261195-34.664449 88.303124-14.473928 11.676446-33.083264 18.122817-52.544008 18.122817zM512.017509 796.674189l218.203587 109.101794c6.446371 3.162371 13.74415 5.230075 18.852595 5.230075 7.784297 0 14.960447-2.432593 20.312151-6.811261l0.973037-0.851407c12.406224-9.243853 18.366077-24.08267 15.690225-38.556598l-43.908303-236.448034L915.827937 464.868512c10.581779-10.825039 14.230669-26.272004 9.487113-40.502673l-0.486519-1.459556c-3.648889-13.62252-15.568595-23.961041-29.677634-25.907114l-0.973037-0.12163-240.218553-41.962228-108.128756-219.663143c-5.230075-12.284594-19.460744-21.163559-33.813042-21.163559-14.109039 0-27.60993 8.878964-34.54282 22.501485l-107.398979 218.203587-241.556479 43.908303c-14.717187 1.824445-26.028745 11.554816-31.380449 26.758522-3.770519 13.86578 0.729778 30.650671 10.946668 40.989191l173.808766 162.01069-45.611118 236.448034c-2.797482 13.74415 3.770519 29.434375 15.690225 38.434969 5.959853 4.500297 13.74415 6.93289 21.893336 6.93289 6.324742 0 12.406224-1.459556 17.51467-4.257038l0.729777-0.364889L512.017509 796.674189z m0 0" fill="" p-id="5471"></path><path d="M748.708802 478.004514c-0.729778 0-1.337926 0-2.067704-0.12163l-158.48343-27.73156-70.910085-144.131132c-2.919112-5.838223-0.486519-12.771113 5.351705-15.690224 5.838223-2.919112 12.771113-0.486519 15.690224 5.351704l65.68001 133.427723 146.806984 25.663856c3.040741 0.486519 5.716593 2.310963 7.541038 4.865186s2.432593 5.716593 1.946075 8.757334c-0.973037 5.473334-5.838223 9.608742-11.554817 9.608743z m0 0" fill="" p-id="5472"></path></svg>