<?xml version="1.0" standalone="no"?><!DOCTYPE svg PUBLIC "-//W3C//DTD SVG 1.1//EN" "http://www.w3.org/Graphics/SVG/1.1/DTD/svg11.dtd"><svg t="1588827989361" class="icon" viewBox="0 0 1024 1024" version="1.1" xmlns="http://www.w3.org/2000/svg" p-id="8361" xmlns:xlink="http://www.w3.org/1999/xlink" width="64" height="64"><defs><style type="text/css"></style></defs><path d="M973.580169 927.533948c0 6.78145-5.498224 12.279674-12.279674 12.279674L91.023598 939.813622c-6.78145 0-12.279674-5.498224-12.279674-12.279674L78.743924 57.257052c0-6.78145 5.498224-12.279674 12.279674-12.279674l870.27792 0c6.78145 0 12.279674 5.498224 12.279674 12.279674L973.580169 927.533948 973.580169 927.533948zM938.278151 100.233865c0-6.78145-5.498224-12.279674-12.279674-12.279674l-791.998065 0c-6.78145 0-12.279674 5.498224-12.279674 12.279674l0 785.858228c0 6.78145 5.498224 12.279674 12.279674 12.279674l791.998065 0c6.78145 0 12.279674-5.498224 12.279674-12.279674L938.278151 100.233865zM206.020702 338.203722 401.146774 338.203722 401.146774 776.699638l27.677363 0 0 53.150524L241.309416 829.850162 241.309416 391.355269l-35.288714 0L206.020702 338.203722zM401.146774 166.863379l0 137.77283L241.309416 304.636209 241.309416 166.863379 401.146774 166.863379zM739.505016 685.083034l122.473379 145.466046L680.689469 830.54908l-33.212426-39.163975-33.905204 39.163975L435.051979 830.54908l123.856889-144.067186-99.639325-118.890784 0-41.261753 148.074454 0 43.592844 52.452629 61.582567-72.033593L453.042725 506.748393l0-53.150524 395.096477 0 0 106.301048L739.505016 685.083034zM619.798657 226.307236l0 209.107505L453.042725 435.414741 453.042725 173.156712l379.873774 0 0 208.407564 29.060873 0 0 53.850465L666.851299 435.414741 666.851299 226.307236 619.798657 226.307236z" p-id="8362"></path></svg>