<?xml version="1.0" standalone="no"?><!DOCTYPE svg PUBLIC "-//W3C//DTD SVG 1.1//EN" "http://www.w3.org/Graphics/SVG/1.1/DTD/svg11.dtd"><svg t="1588835632420" class="icon" viewBox="0 0 1024 1024" version="1.1" xmlns="http://www.w3.org/2000/svg" p-id="4730" xmlns:xlink="http://www.w3.org/1999/xlink" width="64" height="64"><defs><style type="text/css"></style></defs><path d="M480.896 92.096c-24.896-15.104-106.304-57.6-154.688-84.608-42.304-23.488-55.104 27.008-59.2 61.504C263.008 103.68 263.008 148.48 307.296 148.48h162.688c44.384 0.096 44.384-35.808 10.912-56.416z m286.592-23.808c-4-34.592-16.896-84.992-59.2-61.504-48.512 27.008-129.792 69.504-154.688 84.608-33.696 20.512-33.696 56.384 10.784 56.384h162.688c44.512 0 44.512-44.8 40.384-79.488zM0.512 267.616v101.6c-0.096 37.6 12.512 56.608 62.784 56.608h371.104V216.64H62.304C11.52 216.64 0.512 233.344 0.512 267.648z m1023.584 4.288c0-34.304-15.008-55.392-65.696-55.392H592.608v209.184h368.704c50.208 0 62.912-17.408 62.784-55.008-0.192-34.208-0.096-64.512 0-98.816zM42.912 900.992C43.424 979.296 89.12 1024 186.72 1024h245.184V503.2H42.912s-0.512 319.616 0 397.792z m549.696-397.792V1024h237.696c97.6 0 141.504-48.992 142.016-127.296 0.608-78.304-0.096-393.6-0.096-393.6l-379.616 0.096z" p-id="4731"></path></svg>