<?xml version="1.0" standalone="no"?><!DOCTYPE svg PUBLIC "-//W3C//DTD SVG 1.1//EN" "http://www.w3.org/Graphics/SVG/1.1/DTD/svg11.dtd"><svg t="1588827899542" class="icon" viewBox="0 0 1280 1024" version="1.1" xmlns="http://www.w3.org/2000/svg" p-id="5522" xmlns:xlink="http://www.w3.org/1999/xlink" width="80" height="64"><defs><style type="text/css"></style></defs><path d="M57.599952 391.63786c-11.178657 15.95732-20.906649 30.933308-28.927976 44.58663A150.741208 150.741208 0 0 0 0 512.000427v285.866428a90.495925 90.495925 0 0 0 90.794591 90.026592H140.799883a173.525189 173.525189 0 0 0 338.858384 0h22.783981a90.111925 90.111925 0 0 0 54.869288-18.389318 90.709258 90.709258 0 0 0 54.95462 18.389318h132.693223a173.525189 173.525189 0 0 0 338.858384 0h105.13058A90.538591 90.538591 0 0 0 1279.998933 797.866855V90.027445A90.495925 90.495925 0 0 0 1189.161676 0.000853H612.436823a90.453258 90.453258 0 0 0-90.837258 90.026592v102.399915a91.56259 91.56259 0 0 0-18.986651-2.005332H269.226442c-15.103987 0-36.565303 5.546662-80.426599 46.591961a861.140616 861.140616 0 0 0-62.762615 66.517278v0.256l-16.639986 19.455984h0.384c-0.725333 0.810666-1.365332 1.706665-2.133332 2.559997-17.834652 21.802648-34.986638 44.543963-49.834625 65.706612z m856.959286 561.151533a100.56525 100.56525 0 1 1 101.333249-100.522583 101.077249 101.077249 0 0 1-101.290583 100.522583zM593.450172 280.57662V89.984778a18.943984 18.943984 0 0 1 19.029318-18.901317h576.682186a18.943984 18.943984 0 0 1 19.029317 18.901317V797.866855a18.986651 18.986651 0 0 1-19.029317 18.901318h-105.215913a172.415856 172.415856 0 0 0-164.266529-136.106554h-8.533327a0.895999 0.895999 0 0 0-0.341333 0h-1.578665a172.50119 172.50119 0 0 0-164.053197 136.063887h-132.693222a18.943984 18.943984 0 0 1-19.029318-18.858651V280.57662zM310.399741 952.832059a100.56525 100.56525 0 1 1 101.461249-100.565249 101.162582 101.162582 0 0 1-101.461249 100.565249z m-238.933134-155.007871v-209.407825h266.111778a90.538591 90.538591 0 0 0 90.837258-90.069258V389.461862a90.538591 90.538591 0 0 0-90.837258-90.026592H227.029144l5.503996-5.375995a186.453178 186.453178 0 0 1 39.935966-32.383973h230.015809a18.986651 18.986651 0 0 1 19.071984 18.901318v516.991569a18.986651 18.986651 0 0 1-19.071984 18.901317h-22.741315a173.866522 173.866522 0 0 0-154.709204-135.50922H323.413064v0.256-0.256h-23.637314a6.442661 6.442661 0 0 0-1.237332 0H297.813085a1.023999 1.023999 0 0 1-0.213333 0h-0.256v-0.341333a173.951855 173.951855 0 0 0-156.330536 135.63722H90.794591a18.943984 18.943984 0 0 1-19.029317-18.858651z m0-280.618432v-4.82133a161.493199 161.493199 0 0 1 23.381314-47.573293l4.821329-7.679994-9.898658-6.271995 10.111991 5.930662-4.565329-3.029331 4.906662 2.602665c10.495991-16.383986 23.509314-34.943971 37.717302-53.717289a1.151999 1.151999 0 0 1 0.341333-0.384c8.063993-10.751991 16.426653-21.333316 24.95998-31.743973h174.463854a18.943984 18.943984 0 0 1 19.029318 18.858651v108.970576a18.943984 18.943984 0 0 1-19.029318 18.858651H71.67994z" p-id="5523"></path></svg>