<?xml version="1.0" standalone="no"?><!DOCTYPE svg PUBLIC "-//W3C//DTD SVG 1.1//EN" "http://www.w3.org/Graphics/SVG/1.1/DTD/svg11.dtd"><svg t="1588834578402" class="icon" viewBox="0 0 1024 1024" version="1.1" xmlns="http://www.w3.org/2000/svg" p-id="4430" xmlns:xlink="http://www.w3.org/1999/xlink" width="64" height="64"><defs><style type="text/css"></style></defs><path d="M512.00105401 210.946277a301.175851 301.175851 0 0 0-221.665426 97.882151L813.176905 512.122127A301.175851 301.175851 0 0 0 512.00105401 210.946277zM391.53071399 512.122127l-110.53153699-193.354896a301.175851 301.175851 0 0 0 0 386.709792zM813.176905 512.122127l-522.84127699 203.293699A301.175851 301.175851 0 0 0 813.176905 512.122127z" fill="#FFC824" p-id="4431"></path><path d="M853.534469 205.223935a30.117585 30.117585 0 0 0 6.927044 19.275255c6.625869 8.13174799 12.950562 16.263496 18.974079 24.69642A30.117585 30.117585 0 1 0 928.22608 213.95803501c-6.62586901-9.336451-13.85408899-18.672903-21.383486-27.70817801a30.117585 30.117585 0 0 0-53.308125 18.974078z" fill="#6B400D" p-id="4432"></path><path d="M1024 512.122127a511.998946 511.998946 0 0 0-20.479958-143.660881 30.117585 30.117585 0 0 0-57.825763 16.865848A451.763776 451.763776 0 1 1 512.001054 60.35835101a445.740259 445.740259 0 0 1 177.0914 36.14110199 30.117585 30.117585 0 0 0 39.755212-15.96232 30.117585 30.117585 0 0 0-15.96232-39.454036A511.998946 511.998946 0 1 0 1024 512.122127z" fill="#6B400D" p-id="4433"></path><path d="M244.858075 316.357824l112.037416 195.764303-112.037416 195.764303a30.117585 30.117585 0 0 0-3.915286 15.058792 30.117585 30.117585 0 0 0 40.959915 28.009355l542.116531-210.823096a30.117585 30.117585 0 0 0 0-56.018708l-542.116531-210.823095a30.117585 30.117585 0 0 0-37.044629 43.068146zM730.05237 512.122127l-391.528606 150.587925 78.305721-136.73383601a30.117585 30.117585 0 0 0 0-30.11758499L339.427292 361.534202z" fill="#6B400D" p-id="4434"></path></svg>