<?xml version="1.0" standalone="no"?><!DOCTYPE svg PUBLIC "-//W3C//DTD SVG 1.1//EN" "http://www.w3.org/Graphics/SVG/1.1/DTD/svg11.dtd"><svg t="1588830756553" class="icon" viewBox="0 0 1024 1024" version="1.1" xmlns="http://www.w3.org/2000/svg" p-id="2147" xmlns:xlink="http://www.w3.org/1999/xlink" width="64" height="64"><defs><style type="text/css"></style></defs><path d="M512 0C230.4 0 0 230.4 0 512s230.4 512 512 512 512-230.4 512-512S793.6 0 512 0z m256 460.8c-21.32992 29.86496-51.2 55.47008-85.32992 64-8.54016 4.27008-17.07008 4.27008-25.6 4.27008-17.07008 0-29.87008-12.8-29.87008-29.87008 0-17.06496 12.8-29.86496 29.87008-29.86496H665.6c21.32992-4.26496 42.67008-21.33504 55.47008-42.66496 8.52992-12.8 12.8-25.6 12.8-38.4 0-46.93504-42.67008-85.33504-93.87008-85.33504-17.07008 0-34.12992 4.26496-51.2 12.8-25.6 12.8-42.67008 42.66496-42.67008 68.26496v243.2c0 51.2-29.85984 98.12992-72.52992 119.47008-25.6 12.8-51.2 21.32992-81.06496 21.32992-85.33504 0-153.6-64-153.6-140.8 0-25.6 8.53504-46.92992 21.33504-68.27008 21.33504-29.85984 51.2-55.46496 85.33504-64 8.53504-4.26496 17.06496-4.26496 25.6-4.26496 17.06496 0 29.86496 12.8 29.86496 29.86496 0 17.07008-12.8 29.87008-29.86496 29.87008h-8.53504c-21.33504 4.27008-42.66496 21.32992-55.46496 42.67008-8.53504 12.8-12.8 25.6-12.8 38.4C294.4 678.4 337.06496 716.8 388.26496 716.8c17.06496 0 34.13504-4.27008 51.2-12.8 25.6-12.8 42.66496-42.67008 42.66496-68.27008V388.26496c0-46.93504 29.86496-93.86496 72.53504-119.46496 25.6-12.8 51.2-21.33504 81.05984-21.33504 85.34016 0 153.6 64 153.6 140.8 0.00512 25.6-8.5248 51.2-21.3248 72.53504z" fill="#00AE66" p-id="2148"></path></svg>