<?xml version="1.0" standalone="no"?><!DOCTYPE svg PUBLIC "-//W3C//DTD SVG 1.1//EN" "http://www.w3.org/Graphics/SVG/1.1/DTD/svg11.dtd"><svg t="1588834467789" class="icon" viewBox="0 0 1024 1024" version="1.1" xmlns="http://www.w3.org/2000/svg" p-id="2914" xmlns:xlink="http://www.w3.org/1999/xlink" width="64" height="64"><defs><style type="text/css"></style></defs><path d="M930.909091 442.181818h-58.414546a23.272727 23.272727 0 0 1-23.272727-17.92 341.876364 341.876364 0 0 0-37.003636-89.134545 23.272727 23.272727 0 0 1 3.258182-28.625455l41.425454-41.425454a23.272727 23.272727 0 0 0 0-32.814546L791.272727 166.4a23.272727 23.272727 0 0 0-32.814545 0l-40.96 41.425455a23.272727 23.272727 0 0 1-28.625455 3.258181 341.876364 341.876364 0 0 0-89.134545-37.003636 23.272727 23.272727 0 0 1-17.92-23.272727V93.090909a23.272727 23.272727 0 0 0-23.272727-23.272727h-93.09091a23.272727 23.272727 0 0 0-23.272727 23.272727v58.414546a23.272727 23.272727 0 0 1-17.92 23.272727 341.876364 341.876364 0 0 0-89.134545 36.305454 23.272727 23.272727 0 0 1-28.625455-3.258181l-41.425454-41.425455a23.272727 23.272727 0 0 0-32.814546 0L166.4 232.727273a23.272727 23.272727 0 0 0 0 32.814545l41.425455 41.425455a23.272727 23.272727 0 0 1 3.258181 28.625454 341.876364 341.876364 0 0 0-37.003636 89.134546 23.272727 23.272727 0 0 1-23.272727 17.92H93.090909a23.272727 23.272727 0 0 0-23.272727 23.272727v93.090909a23.272727 23.272727 0 0 0 23.272727 23.272727h58.414546a23.272727 23.272727 0 0 1 23.272727 17.92 341.876364 341.876364 0 0 0 36.305454 88.669091 23.272727 23.272727 0 0 1-3.258181 28.625455l-41.425455 41.425454a23.272727 23.272727 0 0 0 0 32.814546L232.727273 857.6a23.272727 23.272727 0 0 0 32.814545 0l41.425455-41.425455a23.272727 23.272727 0 0 1 28.625454-3.258181 341.876364 341.876364 0 0 0 89.134546 37.003636 23.272727 23.272727 0 0 1 17.92 23.272727V930.909091a23.272727 23.272727 0 0 0 23.272727 23.272727h93.090909a23.272727 23.272727 0 0 0 23.272727-23.272727v-58.414546a23.272727 23.272727 0 0 1 17.92-23.272727 341.876364 341.876364 0 0 0 89.134546-37.003636 23.272727 23.272727 0 0 1 28.625454 3.258182l41.425455 41.425454a23.272727 23.272727 0 0 0 32.814545 0L857.6 791.272727a23.272727 23.272727 0 0 0 0-32.814545l-41.425455-41.425455a23.272727 23.272727 0 0 1-3.258181-28.625454 341.876364 341.876364 0 0 0 37.003636-89.134546 23.272727 23.272727 0 0 1 23.272727-17.92H930.909091a23.272727 23.272727 0 0 0 23.272727-23.272727V465.454545a23.272727 23.272727 0 0 0-23.272727-23.272727zM512 744.727273a232.727273 232.727273 0 1 1 232.727273-232.727273 232.727273 232.727273 0 0 1-232.727273 232.727273z" fill="#5D916A" p-id="2915"></path><path d="M512 512m-186.181818 0a186.181818 186.181818 0 1 0 372.363636 0 186.181818 186.181818 0 1 0-372.363636 0Z" fill="#5D916A" p-id="2916"></path></svg>