<?xml version="1.0" standalone="no"?><!DOCTYPE svg PUBLIC "-//W3C//DTD SVG 1.1//EN" "http://www.w3.org/Graphics/SVG/1.1/DTD/svg11.dtd"><svg t="1588925276579" class="icon" viewBox="0 0 1024 1024" version="1.1" xmlns="http://www.w3.org/2000/svg" p-id="2129" xmlns:xlink="http://www.w3.org/1999/xlink" width="64" height="64"><defs><style type="text/css"></style></defs><path d="M928 492.8c19.2 0 32-12.8 32-32V147.2c0-25.6-6.4-51.2-19.2-76.8-19.2-32-44.8-51.2-76.8-64C838.4 0 812.8 0 793.6 0H172.8C153.6 0 134.4 0 115.2 6.4 44.8 19.2 0 83.2 0 147.2V870.4c0 44.8 19.2 83.2 51.2 115.2C76.8 1011.2 108.8 1024 147.2 1024h294.4c19.2 0 32-12.8 32-32s-12.8-32-32-32H128c-6.4 0-6.4 0-12.8-6.4h-6.4L102.4 947.2s-6.4 0-6.4-6.4c-6.4-6.4-6.4 0 0 0l-12.8-12.8L76.8 921.6l-6.4-6.4-6.4-6.4v-25.6s0 6.4 0 0V134.4c0-6.4 0-12.8 6.4-19.2v-6.4s0-6.4 6.4-6.4l6.4-6.4 6.4-6.4 6.4-6.4L102.4 76.8c6.4-6.4 6.4 0 0 0 6.4-6.4 12.8-6.4 19.2-12.8H844.8c6.4 0 6.4 0 0 0 6.4 0 12.8 6.4 19.2 12.8h6.4l6.4 6.4 6.4 6.4 6.4 6.4c6.4 6.4 6.4 12.8 6.4 12.8V460.8c0 19.2 12.8 32 32 32z" p-id="2130"></path><path d="M1006.638545 750.312727h-192.046545V558.545455h-64v191.767272H558.545455v63.906909h192.046545v191.767273h64v-191.767273h192.046545V750.312727z" p-id="2131"></path><path d="M143.546182 219.322182h55.482182V166.074182h20.107636v53.248h52.503273v19.362909H219.136v55.482182c0 4.096-0.372364 8.192-0.372364 12.288h58.088728V325.818182H218.018909c-0.744727 10.798545-1.861818 21.224727-3.351273 31.278545a1009.570909 1009.570909 0 0 1 65.908364 72.983273l-11.543273 16.756364c-22.341818-30.533818-41.704727-53.992727-57.716363-70.749091-10.426182 54.365091-31.650909 96.814545-63.301819 126.976l-15.266909-13.405091c37.981091-35.746909 59.950545-90.112 65.163637-163.84H138.705455v-19.362909h59.950545c0-4.096 0.372364-8.192 0.372364-12.288v-55.482182H143.546182v-19.362909zM442.181818 179.106909v201.448727h-19.735273v-182.458181h-105.378909v182.458181h-19.735272V179.106909H442.181818z m-7.819636 317.998546h-29.789091c-17.873455 0-26.437818-9.681455-26.437818-28.672v-84.526546h18.990545v80.802909c0 9.681455 4.468364 14.522182 13.405091 14.522182h20.48c7.447273 0 13.032727-2.234182 16.011636-5.957818 4.468364-5.213091 7.074909-20.107636 8.564364-44.683637l17.501091 5.957819c-2.234182 29.416727-6.330182 47.662545-12.660364 54.737454-5.585455 5.213091-14.149818 7.819636-26.065454 7.819637zM360.261818 233.472h18.990546v64.046545c-0.744727 55.109818-10.798545 99.421091-29.416728 132.561455-18.618182 30.906182-48.779636 55.109818-90.856727 72.610909l-10.798545-16.756364c40.96-17.128727 70.376727-40.215273 87.877818-70.004363 15.639273-30.161455 23.458909-69.632 24.203636-118.411637v-64.046545zM209.826909 673.605818v199.214546h-19.735273v-199.586909c-12.288 39.470545-29.044364 74.845091-50.269091 106.496l-8.564363-21.224728c27.554909-37.981091 46.917818-81.175273 58.088727-129.210182H138.333091v-19.735272h51.758545v-74.845091h19.735273v74.845091h43.194182v19.735272H209.826909V651.636364a771.141818 771.141818 0 0 1 48.407273 61.44l-4.096 5.957818c37.981091-14.894545 70.004364-32.768 96.814545-52.875637a271.313455 271.313455 0 0 1-44.683636-53.620363 340.48 340.48 0 0 1-34.629818 40.96l-12.660364-15.266909c28.299636-27.554909 50.641455-62.557091 67.025455-104.634182l19.735272 4.840727c-4.468364 10.798545-9.309091 21.224727-13.777454 30.906182h107.985454v15.639273a258.257455 258.257455 0 0 1-60.322909 81.547636c26.065455 20.107636 56.971636 37.236364 93.463273 51.013818l-8.936727 18.618182c-39.098182-16.756364-71.866182-35.746909-98.676364-57.344-29.044364 23.086545-64.418909 42.821818-105.751273 59.205818l-9.681454-13.032727-3.351273 4.840727c-14.149818-23.086545-26.437818-42.077091-36.864-56.226909z m230.865455 63.674182v135.912727h-19.735273v-17.501091h-115.060364v17.501091h-19.735272v-135.912727h154.530909z m-134.795637 99.048727h115.060364v-80.058182h-115.060364v80.058182z m58.833455-181.713454c22.341818-19.735273 40.215273-41.704727 53.620363-66.280728h-96.442181c-1.861818 2.978909-3.723636 5.585455-5.213091 8.564364a226.746182 226.746182 0 0 0 48.034909 57.716364z" p-id="2132"></path></svg>