<?xml version="1.0" standalone="no"?><!DOCTYPE svg PUBLIC "-//W3C//DTD SVG 1.1//EN" "http://www.w3.org/Graphics/SVG/1.1/DTD/svg11.dtd"><svg t="1588834527272" class="icon" viewBox="0 0 1025 1024" version="1.1" xmlns="http://www.w3.org/2000/svg" p-id="3674" xmlns:xlink="http://www.w3.org/1999/xlink" width="64.0625" height="64"><defs><style type="text/css"></style></defs><path d="M672.829901 679.936c-13.312-12.8-34.816-12.8-48.128 0-13.312 12.8-13.312 33.28 0 46.08l119.04 113.92c13.312 12.8 34.816 12.8 48.128 0 13.312-12.8 13.312-33.28 0-46.08l-119.04-113.92z m0 0" fill="#666666" p-id="3675"></path><path d="M726.333901 578.304c14.848-89.088-21.248-178.944-94.464-235.52-73.216-56.576-172.8-71.424-260.608-38.656-10.752 4.096-18.688 12.8-20.992 23.552-2.304 10.752 1.024 22.016 9.216 29.696l103.936 99.328c6.4 6.144 9.984 14.336 9.984 23.04 0 8.704-3.584 16.896-9.984 23.04l-33.28 31.744c-6.4 6.144-15.104 9.472-24.064 9.472s-17.664-3.328-24.064-9.472l-104.192-99.84c-8.192-7.68-19.712-11.008-30.976-8.96-11.264 2.304-20.48 9.728-24.832 19.968-34.816 83.968-19.712 178.944 38.912 249.6 58.88 70.4 152.576 105.472 245.76 91.648l154.88 148.224c60.416 57.856 158.464 57.856 218.88 0s60.416-151.552 0-209.408l-154.112-147.456z m106.24 311.04c-33.792 32.512-88.832 32.512-122.624 0L528.957901 716.032l-18.432 4.096c-60.928 13.568-124.672-1.792-171.776-40.96-47.104-39.168-71.68-97.792-66.048-157.184l61.44 58.88c19.2 18.176 45.056 28.672 72.192 28.672 27.136 0 52.992-10.24 72.192-28.672l33.28-31.744c19.2-18.432 29.952-43.008 29.952-69.12s-10.752-50.688-29.952-69.12l-60.928-58.112c62.208-4.864 123.136 18.944 163.84 64.256 40.704 45.312 56.32 106.496 41.728 164.608L651.837901 599.04l180.736 172.8c33.792 32.512 33.792 84.992 0 117.504z m0 0" fill="#666666" p-id="3676"></path><path d="M992.573901 417.28L587.581901 29.952c-41.728-39.936-109.568-39.936-151.296 0L31.293901 417.28c-22.784 21.76-34.048 52.224-30.72 82.688 3.328 30.72 20.736 58.112 47.616 75.264V921.6c0 56.576 48.128 102.4 107.008 102.4h356.864c19.712 0 35.584-15.36 35.584-34.048 0-18.944-15.872-34.048-35.584-34.048H155.197901c-19.712 0-35.584-15.36-35.584-34.048V554.24c0-14.592-9.728-27.648-24.064-32.256-11.776-3.84-20.48-13.056-23.296-24.576-2.816-11.52 0.768-23.552 9.472-31.744L486.717901 78.08c14.08-13.312 36.608-13.312 50.432 0l404.992 387.584c6.656 6.4 10.496 15.104 10.496 24.064 0 14.592-9.728 27.648-24.064 32.256-14.336 4.608-24.064 17.664-24.064 32.256v81.664c0 18.944 15.872 34.048 35.584 34.048s35.584-15.36 35.584-34.048v-60.672c30.208-18.944 48.384-50.944 48.128-85.504 0.256-27.392-11.008-52.992-31.232-72.448z m0 0" fill="#666666" p-id="3677"></path></svg>